<svg width="20" height="24" viewBox="0 0 20 24" fill="none" xmlns="http://www.w3.org/2000/svg">
<path d="M17.3677 3.6545C17.3677 3.6545 18.9218 2.897 18.7923 4.73664C18.7492 5.49415 18.3606 8.1454 18.0584 11.0131L17.0224 19.5079C17.0224 19.5079 16.936 20.7524 16.159 20.9688C15.3819 21.1852 14.2163 20.2113 14.0004 19.9949C13.8278 19.8326 10.7627 17.3977 9.68344 16.2074C9.38124 15.8827 9.03588 15.2335 9.7266 14.476L14.2595 9.06525C14.7775 8.41595 15.2956 6.90095 13.137 8.7406L7.09324 13.8808C7.09324 13.8808 6.40252 14.4219 5.10744 13.9349L2.30137 12.8527C2.30137 12.8527 1.26528 12.0411 3.03526 11.2295C7.35228 8.68645 12.6622 6.0893 17.3677 3.6545Z" fill="#F6F6F6"/>
</svg>
